<svg width="245" height="80" viewBox="0 0 245 80" fill="none" xmlns="http://www.w3.org/2000/svg">
<g clip-path="url(#clip0_18_9)">
<path d="M18.75 42.6562C21.8125 42.6562 24.2812 41.7812 26.1562 40.0312C28.0521 38.2812 29 35.9479 29 33.0312V31.6875C29 29.2083 28.1875 27.2917 26.5625 25.9375C24.9583 24.5625 22.8438 23.875 20.2188 23.875H19.3438C17.2604 23.875 15.9167 24.1458 15.3125 24.6875C14.7292 25.2292 14.4375 26.375 14.4375 28.125C14.3958 28.5417 14.375 28.8438 14.375 29.0312L14.25 31.1875C14.25 31.3958 14.25 31.6042 14.25 31.8125L14.0312 35.8125L14 36.125C14 36.3333 14 36.5417 14 36.75L13.8438 39.4688V40.625C13.8438 41.9375 14.7292 42.5938 16.5 42.5938L17.0312 42.6562H18.75ZM8.65625 63.3438C6.07292 63.3438 4.78125 62.3542 4.78125 60.375C4.78125 60.0833 5.0625 59.125 5.625 57.5C6.20833 55.875 6.64583 53.375 6.9375 50C7.22917 46.6042 7.375 43.5833 7.375 40.9375L7.46875 38.8125C7.53125 37.3958 7.5625 36.4688 7.5625 36.0312L7.59375 35.3438V31.2812C7.59375 27.4896 7.48958 25.0625 7.28125 24C7.09375 22.9375 7 22.2708 7 22C7 21.125 7.9375 20.5521 9.8125 20.2812C12.5208 19.8854 16.2708 19.6875 21.0625 19.6875C28.2708 19.6875 32.9062 21.8854 34.9688 26.2812C35.7396 27.9062 36.125 29.5521 36.125 31.2188V32C36.125 35.9792 34.7917 39.2396 32.125 41.7812C30.8958 42.9688 29.5729 43.875 28.1562 44.5C26.7604 45.1042 24.8438 45.6562 22.4062 46.1562C16.5938 47.3438 13.6875 49.6458 13.6875 53.0625C13.6875 53.9375 13.8021 54.9375 14.0312 56.0625C14.2604 57.1667 14.375 57.9479 14.375 58.4062C14.375 59.7604 13.8646 60.9271 12.8438 61.9062C11.8438 62.8646 10.6562 63.3438 9.28125 63.3438H8.65625ZM45.6562 50.8125C45.6562 53.5417 46.2812 55.8125 47.5312 57.625C48.7812 59.4375 50.3125 60.3438 52.125 60.3438H53.0625C55.2083 60.3438 57.0208 59.2604 58.5 57.0938C60 54.9271 60.75 52.0417 60.75 48.4375V46.375C60.75 43.5833 60.1354 41.3021 58.9062 39.5312C57.6979 37.7396 56.1354 36.8438 54.2188 36.8438H53.5938C51.3646 36.8438 49.4896 37.9479 47.9688 40.1562C46.4688 42.3646 45.7188 45 45.7188 48.0625L45.6562 48.7812V50.8125ZM52.7188 64.5938H51.7188C48.0729 64.5938 45.1042 63.3229 42.8125 60.7812C40.5208 58.2396 39.375 54.6354 39.375 49.9688L39.4062 49.4375C39.4062 44.3125 40.7604 40.2708 43.4688 37.3125C44.8854 35.75 46.5 34.6042 48.3125 33.875C50.1458 33.125 51.8854 32.75 53.5312 32.75H55.0625C56.8958 32.75 58.6562 33.1562 60.3438 33.9688C65.1771 36.3021 67.5938 40.6979 67.5938 47.1562V47.6562C67.5729 49.7604 67.2292 51.8958 66.5625 54.0625C65.2292 58.3333 62.6667 61.3542 58.875 63.125C56.7708 64.1042 54.7188 64.5938 52.7188 64.5938ZM75.8125 20.5625C75.8125 19.0417 77.2396 18.2812 80.0938 18.2812H80.6562C81.8438 18.2812 82.6562 18.5729 83.0938 19.1562C83.5312 19.7188 83.75 20.8229 83.75 22.4688L83.5 27.125C83.4375 27.8542 83.4062 28.25 83.4062 28.3125L83.3438 29.5C83.3021 30.2708 83.2604 31.0521 83.2188 31.8438L83.125 33.0312L83.0312 34.8125C82.6979 41.1458 82.5312 45.8229 82.5312 48.8438C82.5312 51.8438 82.6667 54 82.9375 55.3125C83.2083 56.625 83.6354 57.7396 84.2188 58.6562C84.8021 59.5729 85.0938 60.1771 85.0938 60.4688V60.8438C85.0938 61.7604 84.6354 62.4896 83.7188 63.0312C82.8229 63.5729 81.6042 63.8438 80.0625 63.8438H78.4375C77.4792 63.8438 76.6354 63.5729 75.9062 63.0312C75.1979 62.4688 74.8438 61.8333 74.8438 61.125V60.2812L75.0312 58.9688C75.2812 57.1562 75.4271 55.8021 75.4688 54.9062C75.5312 53.9896 75.625 52.7292 75.75 51.125C75.875 49.5 76.0729 46.0521 76.3438 40.7812C76.6354 35.4896 76.7812 32.6458 76.7812 32.25L76.9062 29.9062L76.9688 27.5938C76.9688 25.3854 76.7708 23.8125 76.375 22.875C76 21.9167 75.8125 21.1458 75.8125 20.5625ZM94.1875 20.5625C94.1875 19.0417 95.6146 18.2812 98.4688 18.2812H99.0312C100.219 18.2812 101.031 18.5729 101.469 19.1562C101.906 19.7188 102.125 20.8229 102.125 22.4688L101.875 27.125C101.812 27.8542 101.781 28.25 101.781 28.3125L101.719 29.5C101.677 30.2708 101.635 31.0521 101.594 31.8438L101.5 33.0312L101.406 34.8125C101.073 41.1458 100.906 45.8229 100.906 48.8438C100.906 51.8438 101.042 54 101.312 55.3125C101.583 56.625 102.01 57.7396 102.594 58.6562C103.177 59.5729 103.469 60.1771 103.469 60.4688V60.8438C103.469 61.7604 103.01 62.4896 102.094 63.0312C101.198 63.5729 99.9792 63.8438 98.4375 63.8438H96.8125C95.8542 63.8438 95.0104 63.5729 94.2812 63.0312C93.5729 62.4688 93.2188 61.8333 93.2188 61.125V60.2812L93.4062 58.9688C93.6562 57.1562 93.8021 55.8021 93.8438 54.9062C93.9062 53.9896 94 52.7292 94.125 51.125C94.25 49.5 94.4479 46.0521 94.7188 40.7812C95.0104 35.4896 95.1562 32.6458 95.1562 32.25L95.2812 29.9062L95.3438 27.5938C95.3438 25.3854 95.1458 23.8125 94.75 22.875C94.375 21.9167 94.1875 21.1458 94.1875 20.5625ZM121 23.375V23.75C121 24.8125 120.688 25.7188 120.062 26.4688C119.458 27.1979 118.521 27.5625 117.25 27.5625H116.75L115.781 27.4375C115.219 27.4375 114.677 27.1771 114.156 26.6562C113.635 26.1354 113.375 25.3542 113.375 24.3125V23.9375L113.531 22.8125C113.531 22.375 113.792 21.8333 114.312 21.1875C114.854 20.5417 115.542 20.2188 116.375 20.2188L117.094 20.125H117.719L118.594 20.25C119.135 20.25 119.667 20.5208 120.188 21.0625C120.729 21.5833 121 22.3542 121 23.375ZM119.531 36.5625L119.188 44.9688L119.125 45.8125L119.031 48.375V49.5938C119.031 52.5938 119.115 54.5625 119.281 55.5C119.469 56.4375 119.812 57.3542 120.312 58.25C120.812 59.125 121.062 59.7604 121.062 60.1562V60.4375C121.062 61.4583 120.542 62.2708 119.5 62.875C118.458 63.4792 117.042 63.7812 115.25 63.7812H114.469C113.427 63.7812 112.635 63.5521 112.094 63.0938C111.552 62.6146 111.281 62.1042 111.281 61.5625V60.875C111.281 60.6042 111.521 59.6458 112 58C112.479 56.3333 112.719 54.0729 112.719 51.2188C112.781 50.4062 112.812 49.8438 112.812 49.5312L112.906 47.8125L112.969 46.9688C113.073 45.5104 113.125 44.375 113.125 43.5625L113.156 42.3125C113.156 40.75 112.896 39.3646 112.375 38.1562C111.875 36.9479 111.625 36.1979 111.625 35.9062C111.625 34.4062 113.042 33.6562 115.875 33.6562H117C118.062 33.6562 118.75 33.9375 119.062 34.5C119.375 35.0417 119.531 35.7292 119.531 36.5625ZM139.844 50.3125C137.99 50.3125 137.062 52.7604 137.062 57.6562C137.062 59.7812 136.625 61.2188 135.75 61.9688C134.875 62.7188 133.823 63.0938 132.594 63.0938C131.365 63.0938 130.49 62.8854 129.969 62.4688C129.469 62.0521 129.219 61.2708 129.219 60.125C129.219 60.0417 129.333 59.2188 129.562 57.6562C129.792 56.0938 130.083 51.2396 130.438 43.0938C130.792 34.9271 130.969 29.9375 130.969 28.125C130.969 26.3125 130.917 25.1354 130.812 24.5938C130.729 24.0312 130.583 23.3542 130.375 22.5625C130.188 21.7708 130.094 21.2708 130.094 21.0625C130.094 20.1458 130.396 19.5208 131 19.1875C131.625 18.8333 132.656 18.6562 134.094 18.6562C135.552 18.6562 136.51 19.0312 136.969 19.7812C137.448 20.5312 137.688 22.0417 137.688 24.3125L137.281 37.5625C137.281 41.3542 137.719 43.25 138.594 43.25C139.281 43.25 140.969 41.8333 143.656 39C146.365 36.1667 147.75 34.7292 147.812 34.6875C148.646 34.1042 149.906 33.8125 151.594 33.8125C153.281 33.8125 154.125 34.2292 154.125 35.0625C154.125 35.4792 152.781 37.2396 150.094 40.3438C147.406 43.4479 146.062 45.7292 146.062 47.1875C146.062 47.9792 147.594 50.5833 150.656 55C151.76 56.5833 152.802 57.9583 153.781 59.125C154.781 60.2708 155.281 61.0938 155.281 61.5938C155.281 62.6354 154.312 63.1562 152.375 63.1562C150.458 63.1562 148.979 62.6042 147.938 61.5C147.688 61.2292 147.104 60.3125 146.188 58.75C145.271 57.1875 144.625 56.0938 144.25 55.4688C142.104 52.0312 140.635 50.3125 139.844 50.3125Z" fill="#F7B236"/>
<g opacity="0.5">
<rect x="181" width="4" height="80" fill="#F7B236"/>
<rect x="191" y="16" width="54" height="12" fill="#F7B236"/>
<rect x="191" y="34" width="26" height="12" fill="#F7B236"/>
<rect x="191" y="52" width="36" height="12" fill="#F7B236"/>
</g>
</g>
<defs>
<clipPath id="clip0_18_9">
<rect width="245" height="80" fill="white"/>
</clipPath>
</defs>
</svg>
